<?xml version="1.0" encoding="UTF-8" standalone="no"?>
<!-- Created with Inkscape (http://www.inkscape.org/) -->
<svg id="svg3811" xmlns:rdf="http://www.w3.org/1999/02/22-rdf-syntax-ns#" xmlns="http://www.w3.org/2000/svg" height="550" width="550" version="1.1" xmlns:cc="http://creativecommons.org/ns#" xmlns:dc="http://purl.org/dc/elements/1.1/">
 <metadata id="metadata3816">
  <rdf:RDF>
   <cc:Work rdf:about="">
    <dc:format>image/svg+xml</dc:format>
    <dc:type rdf:resource="http://purl.org/dc/dcmitype/StillImage"/>
    <dc:title/>
   </cc:Work>
  </rdf:RDF>
 </metadata>
 <path id="path3774" d="m200.82,533.53c-6.027-2.9834-11.611-8.4255-14.847-14.47-2.4535-4.5829-2.527-5.8941-2.527-45.084v-40.364c-16.413-0.44366-35.083-0.17047-45.052-10.073-5.4665-5.544-7.8361-10.588-9.217-19.619-0.65186-4.2635-0.97269-51.934-0.78531-116.68l0.31681-109.48c94.918-0.19719,189.84-0.39436,284.75-0.59154v113.35c0,125.06,0.2645,120.35-7.3088,130.19-2.0654,2.6851-6.6358,6.5004-10.157,8.4784-15.049,5.7486-20.295,3.9775-37.855,4.4591l0.32206,38.361c0.20369,24.261-0.12903,40.037-0.90518,42.919-1.8347,6.8136-7.9378,14.017-15.003,17.708-11.999,6.2684-28.7,3.3569-36.976-6.4463-7.285-8.6292-7.3638-9.1934-7.3918-52.9l-0.0257-39.889c-18.052-0.00011-36.104-0.00023-54.156-0.00035v79.778c-4.2661,8.8435-10.612,16.824-18.052,20.287-7.1336,3.2291-18.686,3.2606-25.135,0.0682z" fill="#37c837"/>
 <path id="path3772" d="m71.45,368.22c-9.5421-2.2728-18.778-10.475-22.018-19.553-1.9808-5.5506-2.3875-142.63-0.4439-149.63,2.8532-10.273,14.296-19.734,25.781-21.313,11.999-1.6502,25.657,6.087,31.427,17.803l2.718,5.5189v144.41l-2.718,5.5189c-6.4426,13.082-21.284,20.445-34.746,17.239z" fill="#37c837"/>
 <path id="path3770" d="m458.3,368.61c-9.8035-2.3889-17.843-8.5811-22.018-16.958l-3.022-6.0643,0.0257-72.27c0.0283-80.347-0.33579-76.429,7.9874-85.909,7.6088-8.666,23.411-12.228,33.999-7.663,6.4013,2.7598,12.814,9.0342,15.811,15.47l2.7157,5.8317v144.41l-2.7157,5.8317c-2.9304,6.2928-9.4372,12.752-15.324,15.211-5.5461,1.0823-11.931,3.254-17.459,2.1042z" fill="#37c837"/>
 <path id="path3768" fill="#37c837" d="M180.56,11.844c-0.95,0.102-1.82,0.761-2.84,1.781-1.01,1.007-1.84,2.49-1.84,3.313,1.78,9.79,19.84,28.127,24.46,38.593,0,0.136-4.42,2.724-9.81,5.75-27.85,16.139-61.53,55.479-61.25,96.099h284.38c-4.65-42.22-24.86-74.592-66.32-98.286-4.05-2.051-5.89-3.601-5.34-4.532,8.62-14.056,16.94-23.783,23.72-38.031,0-2.776-3.89-5.145-6.91-4.187-1.19,0.378-7.55,8.934-14.12,19s-12.27,18.667-12.66,19.125c-0.39,0.457-4.88-0.465-10-2.063-31.81-9.935-72.57-9.879-102.28,0.125-5.02,1.69-9.26,2.871-9.44,2.657s-6.16-9.146-13.31-19.876c-10.03-15.058-13.58-19.776-16.44-19.468zm29.25,75.094c2.95-0.043,6.04,0.774,8.94,2.656,8.68,5.639,7.52,20.296-2,25.216-9.98,5.17-21.06-1.86-21.06-13.34,0-8.623,6.59-14.425,14.12-14.532zm122.72,0.093c13.86,0.339,20.15,20.929,5.85,27.719-5.4,2.56-10.06,2.32-14.66-0.78-10.5-7.08-7.92-23.007,4.28-26.376,1.58-0.437,3.1-0.598,4.53-0.563z"/>
</svg>
