<?xml version="1.0" encoding="UTF-8" standalone="no"?>
<!-- Created with Inkscape (http://www.inkscape.org/) -->

<svg
   xmlns:dc="http://purl.org/dc/elements/1.1/"
   xmlns:cc="http://creativecommons.org/ns#"
   xmlns:rdf="http://www.w3.org/1999/02/22-rdf-syntax-ns#"
   xmlns:svg="http://www.w3.org/2000/svg"
   xmlns="http://www.w3.org/2000/svg"
   xmlns:sodipodi="http://sodipodi.sourceforge.net/DTD/sodipodi-0.dtd"
   xmlns:inkscape="http://www.inkscape.org/namespaces/inkscape"
   id="svg3811"
   height="550"
   width="550"
   version="1.1"
   inkscape:version="0.48.4 r9939"
   sodipodi:docname="download.svg">
  <defs
     id="defs3118" />
  <sodipodi:namedview
     pagecolor="#ffffff"
     bordercolor="#666666"
     borderopacity="1"
     objecttolerance="10"
     gridtolerance="10"
     guidetolerance="10"
     inkscape:pageopacity="0"
     inkscape:pageshadow="2"
     inkscape:window-width="1315"
     inkscape:window-height="1006"
     id="namedview3116"
     showgrid="false"
     inkscape:zoom="1.5363636"
     inkscape:cx="275"
     inkscape:cy="275"
     inkscape:window-x="566"
     inkscape:window-y="0"
     inkscape:window-maximized="0"
     inkscape:current-layer="svg3811" />
  <metadata
     id="metadata3816">
    <rdf:RDF>
      <cc:Work
         rdf:about="">
        <dc:format>image/svg+xml</dc:format>
        <dc:type
           rdf:resource="http://purl.org/dc/dcmitype/StillImage" />
        <dc:title></dc:title>
      </cc:Work>
    </rdf:RDF>
  </metadata>
  <path
     style="fill:#008000"
     d="m 86.893548,521.13567 c -3.527602,-2.14473 -3.566579,-2.63017 -3.577843,-44.55744 -0.0087,-32.33892 0.171385,-39.75081 1.025272,-42.2004 0.569697,-1.63432 1.132648,-3.0637 1.251003,-3.17639 0.118354,-0.11271 35.98944,-0.40189 79.71352,-0.64266 l 79.49832,-0.43774 -37.67911,-53.14857 c -20.72348,-29.23171 -56.74177,-80.01651 -80.0406,-112.85507 -23.29885,-32.83857 -42.6472,-60.60708 -42.996342,-61.70781 -0.770428,-2.4289 0.638378,-6.98073 2.413236,-7.79709 0.665635,-0.30616 20.002586,-0.55667 42.971006,-0.55667 l 41.76077,0 0,-82.72602 0,-82.726035 1.75465,-2.103203 1.75464,-2.103205 99.78776,0 99.78775,0 1.75466,2.103205 1.75465,2.103203 0,82.726035 0,82.72602 17.69274,0.002 c 9.73101,7.8e-4 28.61767,0.25755 41.97035,0.57065 l 24.27761,0.56924 1.7159,2.05675 c 2.95232,3.53878 1.94278,5.68448 -12.13956,25.80155 -61.75139,88.21346 -143.97607,206.12253 -144.16889,206.73583 -0.1372,0.43639 32.63603,0.75793 77.25883,0.75793 l 77.49711,0 1.55431,1.98315 c 1.55223,1.98048 1.55433,2.03976 1.55433,43.99553 0,41.62243 -0.0139,42.02754 -1.50474,43.64468 -1.47062,1.59531 -5.7382,1.63695 -188.1865,1.83656 -148.8388,0.16286 -187.041198,-0.0145 -188.454832,-0.87375 z m 367.423202,-45.16909 0,-32.55725 -85.44503,-0.21768 -85.44503,-0.2177 22.11821,-31.70384 c 12.16501,-17.43713 48.88549,-70.06982 81.60106,-116.96153 l 59.48283,-85.25768 -14.20619,-0.52659 c -7.81342,-0.28962 -25.70649,-0.5788 -39.7624,-0.64264 l -25.5562,-0.11607 -6e-5,-85.04344 -7e-5,-85.043449 -92.57411,-0.316114 -92.57412,-0.316116 0,85.352479 0,85.35251 -40.26917,0.22127 -40.26917,0.2213 22.83267,32.1323 c 44.98866,63.31227 126.57368,178.41182 134.9705,190.41534 l 8.55682,12.23227 -86.51719,0.21765 -86.517198,0.21764 0,32.5573 0,32.55729 179.786928,0 179.78692,0 0,-32.55725 z m -348.85096,0.21074 -1e-5,-19.92201 169.06405,0 169.06403,0 10e-6,19.92201 0,19.92203 -169.06403,0 -169.06405,0 0,-19.92203 z m 163.34517,-51.81541 c -2.35904,-3.38537 -21.82105,-30.91219 -43.24895,-61.17073 -57.13811,-80.68534 -99.69787,-141.01756 -99.90046,-141.61776 -0.0978,-0.28955 14.86067,-0.66886 33.24093,-0.84289 18.38024,-0.17404 33.49601,-0.39535 33.59062,-0.49178 0.0946,-0.0965 0.18115,-38.22361 0.19234,-84.72703 l 0.0203,-84.551662 45.26231,0 c 24.89427,0 61.72122,-0.255818 81.83768,-0.568483 l 36.57534,-0.568482 0,85.397707 0,85.39771 33.67484,0 c 28.4927,0 33.61602,0.18372 33.29265,1.19384 -0.21023,0.65659 -28.7943,41.82479 -63.5202,91.4849 -34.72589,49.66009 -67.3199,96.34868 -72.43114,103.7524 -8.75814,12.68635 -9.43721,13.4615 -11.79517,13.46441 -2.23036,0.003 -2.96768,-0.6652 -6.79115,-6.15215 z"
     id="path3201"
     inkscape:connector-curvature="0" />
</svg>
