<?xml version="1.0" encoding="UTF-8" standalone="no"?>
<!-- Created with Inkscape (http://www.inkscape.org/) -->
<svg id="svg3811" xmlns:rdf="http://www.w3.org/1999/02/22-rdf-syntax-ns#" xmlns="http://www.w3.org/2000/svg" height="550" width="550" version="1.1" xmlns:cc="http://creativecommons.org/ns#" xmlns:dc="http://purl.org/dc/elements/1.1/">
 <metadata id="metadata3816">
  <rdf:RDF>
   <cc:Work rdf:about="">
    <dc:format>image/svg+xml</dc:format>
    <dc:type rdf:resource="http://purl.org/dc/dcmitype/StillImage"/>
    <dc:title/>
   </cc:Work>
  </rdf:RDF>
 </metadata>
 <path id="path4648" fill="#000000" d="M43.438,529.98c-13.33-3.97-18.454-12.16-23.938-22.57v-369c4.6562-11.014,14.928-18.609,23-23h369c11.52,4.8524,18.949,15.746,23,23.958v367.04c-4.4002,11.677-14.817,19.56-23,24-120.78,0.63686-241.01,0.19679-368.06-0.43092z"/>
 <path id="path4646" fill="#008000" d="m363.62,464.35c1.5188-1.134,4.9848-2.657,6.1188-4.1762,0.76-36.44,0.76-52.92,0.76-102.81l-2.5-4.6732c-3.2152-6.0101-39.369-47.394-43.082-49.314-3.3963-1.7563-11.596-1.8533-14.559-0.17216-22.125,15.63-35.369,36.957-57.437,54.511-35.391-48.609-49.676-77.765-89.579-118.43-3.7946-1.5855-11.096-1.7945-14.709-0.42112-3.9414,1.4985-53.051,48.376-58.117,55.475-8.067,11.31-7.513,4.93-7.513,86.48,0,49.256,0.34659,73.882,1.0666,75.782,1.4184,3.7437,4.753,7.2664,8.4334,8.9093,2.4658,1.1007,26.627,1.3006,135.68,1.1225,132.27-0.21602,132.69-0.22292,135.44-2.2785z"/>
 <path id="path4644" fill="#999999" d="m302.14,273.08c11.255-3.121,19.34-8.7468,26.451-18.406,11.338-15.402,11.868-37.458,1.2944-53.935-7.1308-11.112-19.941-19.209-33.479-21.159-28.97-4.17-54.4,17.95-54.4,47.33,0,31.57,29.932,54.547,60.144,46.17z"/>
 <path id="path4640" fill="#000000" d="M466.5,106.41c-4.84-10.872-13.35-20.365-23-22.995-109.56-0.175-219.12-0.349-328.68-0.524,0.43121-14.212-2.4156-33.851,2.9623-45.007,5.538-10.048,11.573-16.104,20.715-18.469h369c11.312,4.9283,18.967,15.461,23,24v367c-1.809,12.972-14.817,19.56-23,24-13.492,0.22581-26.984,0.45163-40.477,0.67744-0.17-109.57-0.35-219.13-0.52-328.69z"/>
</svg>
