<?xml version="1.0" encoding="UTF-8" standalone="no"?>
<!-- Created with Inkscape (http://www.inkscape.org/) -->
<svg id="svg3811" xmlns:rdf="http://www.w3.org/1999/02/22-rdf-syntax-ns#" xmlns="http://www.w3.org/2000/svg" height="550" width="550" version="1.1" xmlns:cc="http://creativecommons.org/ns#" xmlns:dc="http://purl.org/dc/elements/1.1/">
 <metadata id="metadata3816">
  <rdf:RDF>
   <cc:Work rdf:about="">
    <dc:format>image/svg+xml</dc:format>
    <dc:type rdf:resource="http://purl.org/dc/dcmitype/StillImage"/>
    <dc:title/>
   </cc:Work>
  </rdf:RDF>
 </metadata>
 <g id="g3004" transform="matrix(1.089659,0,0,1.089659,-24.757042,-23.269035)">
  <path id="path3001" fill="#000000" d="m52.405,453.36c-16.681-14.452-16.681-373.21,0-387.66,16.681-14.452,430.76-14.452,447.44,0,16.681,14.452,16.681,373.21,0,387.66-16.681,14.452-430.76,14.452-447.44,0z"/>
  <path id="path2999" fill="#000000" d="m491.99,259.53,0-187.03-215.87,0-215.87,0,0,187.03,0,187.03,215.87,0,215.87,0z"/>
  <path id="path2987" fill="#c87137" d="m60.602,72.764h431.12v373.73h-431.12v-373.73z"/>
  <path id="path3288" fill="#c87137" d="m463.02,259.29,0-161.93-186.86,0-186.86,0,0,161.93,0,161.93,186.86,0,186.86,0,0-161.93z"/>
  <path id="path2997" fill="#000000" d="m89.692,98.003h372.86v323.05h-372.86v-323.05z"/>
  <path id="path2995" fill="#000000" d="m441.12,366.92c0-23.71-14.381-32.284-45.166-49.934-35.433-20.316-38.871-20.72-73.743-8.6694l-36.577,12.64-44.268-35.353-44.268-35.353-38.775,23.765c-37.42,22.935-50.711,25.504-48.984,72.648l-0.2095,52.883h167,165z"/>
  <path id="path3200" fill="#000000" d="m442.93,217.02,0-102.02-166.81,0-166.81,0,0,85.32,0,85.32,36.621-21.56c42.119-24.797,63.679-27.022,81.506-8.411,6.9274,7.2318,24.429,20.45,38.893,29.373,22.397,13.817,31.516,14.837,61.472,6.8712,30.408-8.0856,39.593-6.9014,67.79,8.7398,17.939,9.951,41.928,18.157,45.975,18.236,4.0475,0.0788,1.3592-45.764,1.3592-101.87z"/>
  <path id="path3286" fill="#00ffff" d="m392.99,298.89c-15.244-7.8862-20.324-9.8968-28.675-11.348-9.2975-1.6154-17.881-0.68979-35.982,3.8801-14.615,3.6897-21.141,4.8131-27.92,4.8064-7.9157-0.008-11.855-0.72327-18.173-3.3008-13.177-5.376-38.393-22.646-53.499-36.64-11.283-10.453-17.026-13.042-28.763-12.967-16.493,0.10524-28.662,5.3389-72.658,31.249-9.3358,5.4982-17.099,9.9966-17.252,9.9966-0.42073-59.672-0.27727-105.15-0.27727-169.44h332.73l0.17081,66.102c0.29455,113.99,0.21535,135.04-0.51242,136.17-6.796,3.0322-43.056-15.359-49.193-18.509z"/>
  <path id="path3232" fill="#008000" d="m109.97,318.91c1.9514-12.231,2.021-12.716,18.021-25.16,7.0408-5.299,68.547-42.826,69.516-42.414,31.195,24.497,54.723,43.446,87.991,70.033,23.993-6.2417,45.653-19.783,68.556-20.025,11.701-0.0512,16.849,1.9123,40.994,15.637,25.657,14.584,37.331,23.558,41.547,31.935,3.5711,7.0967,3.8712,9.4782,3.88,30.793l0.008,19.643h-330.77c0.0851-12.811,0.16736-67.631,0.25295-80.442z"/>
 </g>
</svg>
