<?xml version="1.0" encoding="UTF-8" standalone="no"?>
<!-- Created with Inkscape (http://www.inkscape.org/) -->
<svg id="svg3811" xmlns:rdf="http://www.w3.org/1999/02/22-rdf-syntax-ns#" xmlns="http://www.w3.org/2000/svg" height="550" width="550" version="1.1" xmlns:cc="http://creativecommons.org/ns#" xmlns:dc="http://purl.org/dc/elements/1.1/">
 <metadata id="metadata3816">
  <rdf:RDF>
   <cc:Work rdf:about="">
    <dc:format>image/svg+xml</dc:format>
    <dc:type rdf:resource="http://purl.org/dc/dcmitype/StillImage"/>
    <dc:title/>
   </cc:Work>
  </rdf:RDF>
 </metadata>
 <path id="path3217" fill="#000000" d="M48.307,429.55c-10.277-15.35-25.644-46.89-31.306-64.27-17.866-54.83-17.822-112.44,0.126-166.98,33.551-101.96,124.23-173.92,232.48-184.47,79.805-7.779,161.04,21.545,218.3,78.804,56.136,56.136,85.037,136.32,77.188,214.15-1.8628,18.472-6.8399,42.358-12.258,58.828-5.6485,17.172-21.099,48.786-31.247,63.936-27.205,40.615-63.136,71.969-106.7,93.106-30.92,15.003-42.31,17.568-48.878,11.006-2.6373-2.6348-2.7315-4.0808-3.3892-52.01-0.64987-47.36-0.79396-49.63-3.6625-57.684-1.6423-4.6109-5.2689-11.734-8.0592-15.829-3.3804-4.9609-4.5253-7.6035-3.4312-7.9198,0.90308-0.26102,7.7361-1.4589,15.184-2.662,26.245-4.2391,51.443-14.819,67.299-28.256,17.649-14.957,30.478-38.99,35.191-65.926,7.4489-42.572,0.97308-76.141-19.646-101.84l-5.0052-6.2384,2.3531-8.4861c3.2246-11.629,3.1513-32.222-0.16397-46.05-3.9217-16.357-4.5589-17.307-11.606-17.307-13.144,0-33.96,7.577-54.686,19.906l-13.699,8.1489-10.014-2.3067c-20.337-4.6847-30.632-5.7013-57.735-5.7013s-37.398,1.0166-57.735,5.7013l-10.014,2.3067-13.699-8.1489c-20.726-12.329-41.541-19.906-54.686-19.906-7.0474,0-7.6847,0.95027-11.606,17.307-3.3153,13.828-3.3886,34.421-0.16396,46.05l2.3531,8.4861-5.0052,6.2384c-16.572,20.655-24.233,46.949-22.422,76.955,2.896,47.976,18.18,78.741,49.169,98.97,14.759,9.6348,36.328,17.339,58.031,20.727,16.717,2.6099,15.689,1.6978,10.258,9.0969-4.7333,6.4481-10.824,21.324-10.875,26.562-0.0664,6.795-30.908,11.899-45.885,7.5942-13.858-3.9836-23.691-11.956-33.329-27.024-6.1443-9.6051-14.71-17.64-24.197-22.696-15.758-8.3991-35.299-5.6259-27.808,3.9464,0.86416,1.1043,4.7807,4.3654,8.7034,7.247,12.227,8.982,19.737,18.408,27.678,34.739,8.4407,17.358,15.323,25.187,27.581,31.375,12.79,6.4563,22.708,8.1928,42.079,7.3673,8.0139-0.49521,16.051-0.54165,23.861-2.4274v27.32c0,16.271-0.53707,28.324-1.328,29.801-1.7426,3.2561-7.9395,6.3934-12.473,6.3147-61.62-14.82-116.31-65.99-145.09-107.86zm127.37,24.914c-3.4125-2.4953-1.6685-5.9904,2.989-5.9904,2.0635,0,4.5265,0.9334,5.4733,2.0742,1.4626,1.7623,1.3523,2.3441-0.73348,3.8693-3.3195,1.8896-5.7057,1.4933-7.7288,0.0469zm19.954-2.1042c-3.2164-2.0504,0.14675-5.8209,5.1921-5.8209,4.9059,0,6.1662,1.9999,3.1568,5.0093-2.3431,2.3431-5.4696,2.647-8.3489,0.81154zm-42.548-1.9352c-2.2722-2.7379-0.64206-5.8203,3.0782-5.8203,3.8473,0,7.3879,3.2372,6.3886,5.8412-0.94609,2.4655-7.4151,2.4512-9.4668-0.0209zm-17.812-9.9476c-0.85124-0.85124-1.5477-2.8826-1.5477-4.5142,0-2.2356,0.73087-2.9664,2.9664-2.9664,3.7798,0,6.0619,2.282,6.0619,6.0619,0,2.2356-0.73087,2.9664-2.9665,2.9664-1.6315,0-3.6629-0.69646-4.5142-1.5477zm-13.406-17.189c-1.1334-2.4875-1.1184-3.626,0.0632-4.8076,2.2422-2.2422,5.8931,0.41072,6.3995,4.6503,0.32668,2.7352-0.12908,3.4168-2.2847,3.4168-1.6284,0-3.2798-1.2883-4.1779-3.2594zm-10.75-14.92c-1.3116-4.1326,1.3665-5.9805,4.5249-3.1222,3.5403,3.204,3.3026,5.8315-0.52748,5.8315-2.0549,0-3.4342-0.9349-3.9974-2.7094zm-11.637-10.3c-0.47661-0.7712-0.2047-2.064,0.60428-2.873,1.62-1.62,5.3563,0.0225,6.2671,2.755-1.3257,1.811-5.7447,1.6368-6.8714,0.11794z"/>
</svg>
