<?xml version="1.0" encoding="UTF-8" standalone="no"?>
<!-- Created with Inkscape (http://www.inkscape.org/) -->
<svg id="svg3811" xmlns:rdf="http://www.w3.org/1999/02/22-rdf-syntax-ns#" xmlns="http://www.w3.org/2000/svg" height="550" width="550" version="1.2" xmlns:cc="http://creativecommons.org/ns#" xmlns:dc="http://purl.org/dc/elements/1.1/">
 <metadata id="metadata3816">
  <rdf:RDF>
   <cc:Work rdf:about="">
    <dc:format>image/svg+xml</dc:format>
    <dc:type rdf:resource="http://purl.org/dc/dcmitype/StillImage"/>
    <dc:title/>
   </cc:Work>
  </rdf:RDF>
 </metadata>
 <path id="path5176" fill="#000000" d="m86.244,515.47c-4.4152-2.3602-6.8809-5.869-9.6145-9.8269v-461.29c2.4982-3.8808,5.6952-7.8509,9.6847-9.8374,4.2623-2.0457,6.8487-2.0846,138.66-2.0846,114.52,0,134.74,0.22168,137.2,1.5041,35.629,34.146,71.71,69.81,103.24,102.98,3.3759,3.5874,6.3968,7.9505,7.0154,10.132,1.5608,128.73,0.75439,214.75,0.52791,358.6-2.4768,3.712-5.4301,7.6107-9.2075,9.7655-3.8947,2.1516-4.2838,2.1561-188.57,2.1553-182.32-0.00082-184.72-0.0274-188.94-2.0942z"/>
 <path id="path5174" d="m438.24,168.94-100.42,0,0-101.84-226.47-0.54399,0.00013,416.88,326.89,0z" fill="#ffffff"/>
 <path id="path3774" d="M425.33,146.42c-63.95-64.741-64.15-64.632-64.15-64.632l-0.92105,65.104s-0.63258-0.22894,65.076-0.47315z" fill="#e6e6e6"/>
 <path id="path2991" fill="#000000" d="m150.11,402.4,136.74,0,0,33.602-136.74,0z"/>
 <path id="path2989" fill="#000000" d="m150.11,346.75,228.61,0,0,32.552-228.61,0z"/>
 <path id="path2987" fill="#000000" d="m150.11,290.05,194.43,0,0,33.602-194.43,0z"/>
 <path id="path2985" fill="#000000" d="m150.11,233.34,252.11,0,0,33.602-252.11,0z"/>
</svg>
