<?xml version="1.0" encoding="UTF-8" standalone="no"?>
<!-- Created with Inkscape (http://www.inkscape.org/) -->
<svg id="svg3811" xmlns:rdf="http://www.w3.org/1999/02/22-rdf-syntax-ns#" xmlns="http://www.w3.org/2000/svg" height="550" width="550" version="1.1" xmlns:cc="http://creativecommons.org/ns#" xmlns:dc="http://purl.org/dc/elements/1.1/">
 <metadata id="metadata3816">
  <rdf:RDF>
   <cc:Work rdf:about="">
    <dc:format>image/svg+xml</dc:format>
    <dc:type rdf:resource="http://purl.org/dc/dcmitype/StillImage"/>
    <dc:title/>
   </cc:Work>
  </rdf:RDF>
 </metadata>
 <path id="path3377" fill="#008000" d="M372.22,493.02c-112.58-37.65-180.67-125.21-193.28-248.55l-2.6385-25.797-20.303-0.0494c-33.917-0.0825-52.853-4.7475-52.853-13.021,0-8.3063,124.05-149.42,145.48-165.49,11.898-8.9211,15.296-9.5912,25.134-4.9574,9.6046,4.5238,122.32,126.5,147.86,160,12.024,15.775,3.8546,20.9-37.488,23.517l-35.446,2.2432-3.5106,15.703c-1.9308,8.6364-3.6451,37.91-3.8096,65.053-0.53503,88.304,19.305,149.65,55.769,172.45,19.132,11.961,22.734,24.231,7.6071,25.919-4.7496,0.53011-19.38-2.6293-32.512-7.0208z"/>
</svg>
