<?xml version="1.0" encoding="UTF-8" standalone="no"?>
<!-- Created with Inkscape (http://www.inkscape.org/) -->
<svg id="svg3811" xmlns:rdf="http://www.w3.org/1999/02/22-rdf-syntax-ns#" xmlns="http://www.w3.org/2000/svg" height="550" width="550" version="1.1" xmlns:cc="http://creativecommons.org/ns#" xmlns:dc="http://purl.org/dc/elements/1.1/">
 <metadata id="metadata3816">
  <rdf:RDF>
   <cc:Work rdf:about="">
    <dc:format>image/svg+xml</dc:format>
    <dc:type rdf:resource="http://purl.org/dc/dcmitype/StillImage"/>
    <dc:title/>
   </cc:Work>
  </rdf:RDF>
 </metadata>
 <path id="path3372" d="M192.13,388.45c-43.34-3.9-84.06-23.38-115.18-55.12-14.321-14.61-24.957-29.8-34.234-48.89-8.656-17.82-14.081-35.62-17.22-56.51-1.6815-11.192-1.6815-38.866,0-50.058,6.2828-41.817,23.77-77.365,52.217-106.15,29.149-29.493,64.446-47.326,105.72-53.413,12.31-1.8154,37.563-1.8154,49.873,0,33.524,4.9441,62.46,17.418,89.697,38.668,9.1916,7.1711,24.734,23.23,32.127,33.196,19.619,26.444,31.043,54.278,36.088,87.926,1.791,11.945,1.791,37.655,0,49.599-5.6679,37.801-19.693,69.051-43.678,97.322-37.64,44.366-97.156,68.655-155.4,63.423zm10.276-95.427-5.7689,0.45987c-14.809,1.1805-39.082,5.6404-42.539,7.8161-1.9957,1.256,11.881,24.342,23.046,38.34,4.9764,6.2393,23.785,25.592,24.872,25.592,0.59286-25.423,0.38974-44.811,0.38974-72.207zm26.432,58.577c12.497-12.989,21.082-24.762,30.53-41.869,3.4362-6.2215,4.0878-7.909,3.2558-8.4326-3.5035-2.2049-28.263-6.7288-42.539-7.7724l-5.7689-0.42172v72.252l2.7914-2.2328c1.5353-1.228,6.8139-6.4137,11.73-11.524zm-47.274,10.961c0-0.22823-2.2778-2.8491-5.0618-5.8242-10.659-11.391-22.297-27.896-30.332-43.021-3.7071-6.9774-4.3911-7.8545-5.8047-7.4434-6.5245,1.8976-36.581,18.55-36.036,19.965,19.67,18.443,51.296,32.074,76.676,36.636,0.30704,0.0562,0.55827-0.0844,0.55827-0.31263zm64.388-1.955c18.238-4.4522,35.69-12.164,51.362-22.696,6.6348-4.4588,14.709-10.708,15.08-11.672,0.5447-1.4146-29.512-18.068-36.03-19.963-1.4014-0.40745-2.0758,0.43565-5.5098,6.8886-8.1881,15.387-19.548,31.597-30.208,43.105-3.0176,3.2577-5.4866,6.0913-5.4866,6.297,0,0.47345,3.2385-0.11419,10.793-1.9585zm-143.42-47.592c7.7784-5.1453,22.91-13.298,30.091-16.213,2.3541-0.95548,4.2801-1.9654,4.2801-2.2443,0-0.27888-1.2864-4.0211-2.8587-8.3162-8.4308-23.03-14.262-52.526-14.262-72.142v-5.1809h-72.278l0.46293,4.6969c3.4258,34.758,13.116,61.331,31.358,85.99,4.6712,6.3144,14.849,18.282,15.548,18.282,0.16172,0,3.6083-2.1923,7.659-4.8719zm224.18-0.20081c14.699-16.292,26.352-36.075,33.395-56.698,4.4877-13.14,6.9518-25.243,8.6528-42.501l0.46293-4.6969h-72.278v5.13c0,11.699-3.1012,33.137-7.1007,49.086-0.99952,3.9858-3.5207,12.102-5.6026,18.036-5.2594,14.991-5.1783,13.68-0.94431,15.268,6.3518,2.3815,22.382,10.991,30.226,16.233,4.1876,2.7989,7.8385,5.1173,8.1129,5.1521,0.27447,0.0347,2.5586-2.2195,5.0759-5.0095zm-166.37-25.37c11.545-2.961,23.138-4.8026,34.055-5.4094l8.002-0.44481v-72.671h-71.46c0.48063,10.227,1.4355,20.513,2.9979,30.608,2.5205,15.888,6.4163,30.588,12.063,45.517,1.7875,4.7259,2.4662,5.7864,3.4453,5.3836,0.67061-0.2759,5.5739-1.6185,10.896-2.9836zm110.38-2.4481c7.7695-20.541,12.509-41.9,14.279-64.35,0.42023-5.33,0.76406-10.709,0.76406-10.709-71.58-0.39438-0.14228-1.5212-71.46-1.0181v72.896h4.7701c10.205,0,33.288,3.9104,44.262,7.4981,2.3046,0.75344,4.4121,1.4037,4.6833,1.4449,0.27122,0.0413,1.4866-2.5517,2.7009-5.7621zm-150.69-98.06c0.87394-17.992,4.6552-38.983,10.133-56.252,2.017-6.3585,2.587-9.0928,1.9893-9.5423-0.46074-0.34651-3.015-1.592-5.6761-2.7678-8.6061-3.8026-22.084-11.717-31.261-18.357-3.4785-2.5169-6.5498-4.5763-6.825-4.5763-0.92396,0-9.7705,11.574-14.935,19.539-14.426,22.25-22.962,47.992-25.481,76.841l-0.44292,5.0727h72.015zm82.372-50.915-4.1234,0c-10.87,0-33.778-3.9994-47.204-8.2411-3.8706-1.2229-7.1023-2.1516-7.1816-2.0638-0.59725,0.66154-5.7962,19.065-7.2871,25.795-2.727,12.31-5.6634,35.312-5.6634,44.364,71.58,1.9035-0.36075,0.0121,71.46,1.0181v-60.872zm83.369,59.854c0-9.0575-2.8811-31.406-5.6816-44.072-1.576-7.1278-6.6813-25.508-7.2426-26.074-0.0851-0.0859-3.3231,0.84668-7.1956,2.0724-13.292,4.2071-36.343,8.2202-47.216,8.2202h-4.1234v60.872c71.691-0.50642-0.50046-0.0739,71.46-1.0181zm82.98-3.6788c-3.0507-30.953-10.888-54.69-25.493-77.217-6.4178-9.8986-14.237-19.73-15.35-19.298-0.46532,0.18027-4.1909,2.7032-8.279,5.6064-8.073,5.7332-21.95,13.793-29.491,17.128-2.6067,1.1529-5.1165,2.3797-5.5772,2.7262-0.59768,0.44949-0.0276,3.1837,1.9893,9.5423,5.4781,17.27,9.2593,38.26,10.133,56.252l0.48365,9.9575h72.047zm-166.35-151.7c-9.1534,7.7071-17.8,16.523-25.341,25.804-6.7592,8.4434-11.398,15.267-17.383,25.57-3.9887,6.8663-10.87,20.988-10.87,22.308,0,2.2294,31.947,9.1414,46.523,10.066,2.047,0.12981,4.4755,0.29697,5.3967,0.37146l1.6748,0.13546v-84.254zm31.264,82.269c13.287-1.7438,34.241-7.0827,34.241-8.7242,0-0.38661-2.1755-5.1523-4.8344-10.59-5.6451-11.546-12.187-22.294-19.837-32.593-9.2013-10.537-17.989-21.655-28.924-30.402v84.305l5.3967-0.4361c2.9682-0.23987,9.2488-0.94167,13.957-1.5596zm-92.992-19.276c8.04-17.969,21.47-38.705,34.116-52.672,2.3854-2.6225,4.7323-5.2766,7.0102-7.9922l-2.5395,0.46483c-17.232,3.1541-37.754,10.92-52.699,19.943-6.8578,4.1402-20.405,14.241-26.511,19.767l-3.7219,3.3684c5.9944,4.3039,12.069,8.6775,18.237,12.474,6.1805,3.7798,21.771,11.668,22.562,11.416,0.33165-0.10574,1.9272-3.1518,3.5456-6.7689zm145.24,4.0773c10.126-4.7564,22.01-11.991,32.639-19.871l1.8324-1.3585-2.9775-2.6252c-13.8-12.167-24.3-19.416-37.96-26.204-15.1-6.611-29.6-11.95-44.48-14.671,15.097,16.85,29.051,36.624,37.837,54.158,2.6547,5.3516,5.1443,10.574,5.5326,11.604,0.3882,1.0308,0.86177,1.8743,1.0524,1.8743,0.19059,0,3.1299-1.3073,6.5317-2.9052z" fill="#803300"/>
 <path id="path3115" d="m225.98,543.23c8.2815-1.1518,18.447-4.3356,26.096-8.1728,6.3952-3.2083,19.869-12.228,27.702-18.546l4.873-3.9297,2.961,3.4592c11.199,13.083,32.28,21.812,54.936,22.746,44.248,1.8244,84.92-23.37,91.811-56.873l1.0609-5.1578,9.8676,0.4064c11.688,0.48139,18.237-0.49984,30.432-4.5596,26.998-8.9878,46.744-25.584,58.742-49.369,20.437-40.518,16.026-98.249-10.33-135.2-17.656-24.752-42.569-38.439-72.338-39.742l-11.667-0.511-1.9339-5.496c-14.623-41.556-58.924-63.596-108.78-54.118-29.37,5.583-53.881,21.659-67.008,43.948l-2.2272,3.7816-14.618,0.10039c-15.669,0.10759-23.324,1.222-34.5,5.0234-31.195,10.61-49.494,38.391-54.997,83.493l-1.0058,8.244h-3.2225c-4.8888,0-14.385,2.2126-21.848,5.0906-10.953,4.2239-21.215,11.179-39.827,26.993-20.025,17.014-33.187,22.096-48.033,18.545-5.1487-1.2318-16.523-6.638-29.727-14.129-5.7965-3.2886-10.625-5.8935-10.73-5.7887-0.35359,0.35359,13.826,39.809,17.725,49.319,9.7661,23.823,20.193,40.709,33.278,53.892,20.139,20.29,45.444,29.521,73.298,26.739,5.1838-0.51785,10.806-1.2514,12.493-1.6301l3.0676-0.68852,2.8115,6.3976c6.347,14.443,19.199,30.175,29.948,36.659,12.516,7.5504,34.673,11.439,51.693,9.0712z" fill="#803300"/>
 <path id="path3111" d="m201.76,532.62c-6.2528-1.1872-17.816-4.9416-21.138-6.8632-8.4207-4.8708-19.175-17.435-25.15-29.384-6.6054-13.208-9.8149-29.36-7.93-39.907,2.6749-14.968,9.9938-22.859,26.316-28.374,7.545-2.5492,8.7511-2.7128,19.87-2.6947,14.638,0.0239,18.506,1.0028,24.205,6.1266,3.4248,3.0792,5.2144,5.8339,9.2584,14.252,4.4322,9.2256,5.2578,10.435,7.1247,10.435,1.9675,0,2.1116-0.28579,2.1116-4.1861,0-12.689-5.5302-23.418-15.303-29.689-7.8842-5.0593-14.363-6.8778-26.128-7.3337-19.265-0.7465-33.27,4.2811-45.268,16.25-7.4086,7.391-10.514,12.73-12.634,21.725-1.8119,7.6856-1.4471,19.741,0.81267,26.861,1.0005,3.1522-22.565,4.5412-36.328,2.1412-15.644-2.728-28.422-9.6824-41.048-22.34-9.6806-9.7045-16.697-19.991-24.543-35.981-4.921-10.03-15.172-34.97-15.172-36.91,0-0.33311,2.7586,0.66746,6.1301,2.2235,8.5392,3.941,15.973,5.7508,23.886,5.8152,15.779,0.1285,25.231-4.634,49.887-25.135,24.256-20.169,38.484-26.742,57.884-26.742h6.7999v-4.1844c0-6.4887,2.3708-23.242,4.6202-32.647,4.283-17.91,10.716-30.27,21.149-40.636,5.5909-5.5546,8.4318-7.6145,14.88-10.789,11.658-5.7398,18.88-7.3752,34.95-7.9142,12.931-0.43366,13.428-0.38938,12.834,1.1439-2.2479,5.8013-4.0536,16.817-4.0731,24.847-0.0269,11.103,1.6544,18.389,6.3068,27.331,14.451,27.777,56.132,40.787,85.686,26.744,21.348-10.144,26.602-33.287,13.809-60.823-3.8055-8.1906-4.4675-8.4949-7.1587-3.2907-1.7111,3.3089-1.5176,6.4457,0.86415,14.011,3.2778,10.412,3.4419,12.851,1.3363,19.858-2.4351,8.1042-4.9651,12.331-10.196,17.034-6.5649,5.9024-11.966,7.6842-23.233,7.6637-7.92-0.0144-10.305-0.36249-16.065-2.345-9.7508-3.356-16.663-7.5026-23.788-14.271-10.177-9.6673-13.837-19.24-13.817-36.141,0.02-17.317,6.1316-32.057,18.581-44.814,11.041-11.314,25.193-19.19,42.93-23.893,9.3765-2.486,10.789-2.6319,25.981-2.685,14.234-0.0497,16.913,0.16819,23.505,1.9116,15.522,4.105,26.012,9.6721,35.872,19.038,10.093,9.5875,16.826,21.262,20.081,34.819l1.4256,5.9377,14.095-0.007c11.832-0.005,15.301,0.299,21.601,1.8931,33.663,8.5172,57.739,36.698,66.536,77.88,2.2539,10.551,3.0987,32.348,1.6881,43.554-3.7328,29.656-17.428,54.335-37.531,67.628-28.924,19.127-57.611,22.411-78.133,8.9466-20.747-13.613-26.526-41.667-13.756-66.778,2.5704-5.0542,7.787-12.647,10.273-14.952,5.0367-4.6703,13.287-5.6858,22.565-2.7774,7.312,2.2921,9.2734,2.2033,9.9394-0.45008,1.4021-5.5864-3.9324-9.9661-13.853-11.373-11.792-1.6724-21.809,2.1506-30.909,11.797-17.771,18.838-21,53.428-7.1673,76.766,5.4414,9.1806,15.942,17.496,26.271,20.804,1.8312,0.58653,1.8983,3.529,0.22381,9.8215-2.0057,7.5371-6.3315,15.031-12.473,21.607-19.78,21.18-57.395,30.718-87.855,22.277-13.515-3.7453-27.425-13.563-33.279-23.489-1.3951-2.3656-2.9913-4.1359-3.5471-3.9341-0.55577,0.20179-5.5022,3.9416-10.992,8.3107-17.649,14.046-28.121,20.339-40.421,24.289-4.8368,1.5534-8.2372,1.9456-18.602,2.1457-6.9757,0.1347-13.634,0.0643-14.797-0.15644z" fill="#00ffff"/>
</svg>
